<svg width="27" height="27" viewBox="0 0 27 27" fill="none" xmlns="http://www.w3.org/2000/svg">
<path d="M21.5713 2.05273H5.42784C3.57159 2.05273 2.05284 3.57148 2.05284 5.42773V21.5729C2.05284 23.4291 3.57159 24.9479 5.42784 24.9479H21.573C23.4292 24.9479 24.948 23.4291 24.948 21.5729V5.42773C24.9463 3.57148 23.4292 2.05273 21.5713 2.05273ZM21.3545 14.2728H18.6376V24.1025H14.5724V14.2728H12.539V10.8843H14.5724V8.85083C14.5724 6.0867 15.7199 4.44223 18.9852 4.44223H21.6996V7.82989H20.0019C18.7329 7.82989 18.6486 8.30492 18.6486 9.18833L18.6376 10.8843H21.7131L21.3545 14.2728Z" fill="white"/>
</svg>
