<svg width="24" height="25" viewBox="0 0 24 25" fill="none" xmlns="http://www.w3.org/2000/svg">
<g clip-path="url(#clip0_4_173)">
<path d="M12 8.5C10.9391 8.5 9.92172 8.92143 9.17157 9.67157C8.42143 10.4217 8 11.4391 8 12.5C8 13.5609 8.42143 14.5783 9.17157 15.3284C9.92172 16.0786 10.9391 16.5 12 16.5C13.0609 16.5 14.0783 16.0786 14.8284 15.3284C15.5786 14.5783 16 13.5609 16 12.5C16 11.4391 15.5786 10.4217 14.8284 9.67157C14.0783 8.92143 13.0609 8.5 12 8.5Z" fill="white"/>
<path fill-rule="evenodd" clip-rule="evenodd" d="M7.2 0.5C5.29044 0.5 3.45909 1.25857 2.10883 2.60883C0.758569 3.95909 0 5.79044 0 7.7L0 17.3C0 19.2096 0.758569 21.0409 2.10883 22.3912C3.45909 23.7414 5.29044 24.5 7.2 24.5H16.8C18.7096 24.5 20.5409 23.7414 21.8912 22.3912C23.2414 21.0409 24 19.2096 24 17.3V7.7C24 5.79044 23.2414 3.95909 21.8912 2.60883C20.5409 1.25857 18.7096 0.5 16.8 0.5L7.2 0.5ZM6.4 12.5C6.4 11.0148 6.99 9.59041 8.0402 8.5402C9.09041 7.49 10.5148 6.9 12 6.9C13.4852 6.9 14.9096 7.49 15.9598 8.5402C17.01 9.59041 17.6 11.0148 17.6 12.5C17.6 13.9852 17.01 15.4096 15.9598 16.4598C14.9096 17.51 13.4852 18.1 12 18.1C10.5148 18.1 9.09041 17.51 8.0402 16.4598C6.99 15.4096 6.4 13.9852 6.4 12.5ZM17.6 6.9H19.2V5.3H17.6V6.9Z" fill="white"/>
</g>
<defs>
<clipPath id="clip0_4_173">
<rect width="24" height="24" fill="white" transform="translate(0 0.5)"/>
</clipPath>
</defs>
</svg>
