<svg width="44" height="54" viewBox="0 0 44 54" fill="none" xmlns="http://www.w3.org/2000/svg">
<path d="M0 27C0 41.9117 11.8628 54 26.4962 54C41.1297 54 26.4962 47.9117 26.4962 33C26.4962 18.0883 41.1297 0 26.4962 0C11.8628 0 0 12.0883 0 27Z" fill="#E4E7EE"/>
<path d="M30.8681 43H38.0066C38.3391 43 38.6659 43.0781 38.9544 43.2265C39.2429 43.375 39.4831 43.5886 39.651 43.8461L39.7393 43.9815C39.9763 44.3449 40.0554 44.7741 39.9614 45.1867C39.8674 45.5993 39.6069 45.9662 39.2298 46.217C37.4897 47.3749 35.3806 48 33.2141 48H29.7493C28.75 48 27.7805 47.6951 27 47.1354L30.8681 43Z" fill="#78A2E7"/>
<path d="M32.1126 29.4525V26.8059L32.8445 25.9367C32.9382 25.8254 32.9926 25.6862 32.9993 25.5408C33.006 25.3955 32.9645 25.2519 32.8814 25.1325L32.1476 24.0782L32.2295 23.6039C32.246 23.5078 32.2267 23.409 32.1751 23.3263C32.1235 23.2435 32.0433 23.1827 31.9497 23.1553L28 22L29.848 28.6275L32.1155 30L32.1126 29.1217" fill="#F0B78F"/>
<path d="M28 22L29.7965 28.6276L32 30L31.9974 29.1219V28.9439C31.8174 28.8 31.6732 28.614 31.5769 28.4013L28.7806 22.2349L28 22Z" fill="#C99978"/>
<path d="M30 35H27.9216C27.4224 35 26.9296 34.884 26.4797 34.6608C26.0297 34.4375 25.6342 34.1126 25.3224 33.7101C25.0022 33.2969 24.7787 32.813 24.6694 32.296C24.5602 31.779 24.568 31.2429 24.6923 30.7296C24.8651 30.3104 24.8906 29.8421 24.7644 29.4055C24.6381 28.969 24.3681 28.5917 24.001 28.339L23 27.6667L26.8709 24L29.6195 28.4524L30 35Z" fill="#7A4922"/>
<path d="M30.184 37C30.2579 37.3124 30.2649 37.6383 30.2045 37.954C30.1441 38.2696 30.0177 38.567 29.8347 38.8246L29 40L32.8962 43C33.9296 41.5123 34.6471 39.8069 35 38L30.184 37Z" fill="#F0B78F"/>
<path d="M28.8092 39.8961L28.1986 39.9926C27.441 40.1122 26.7241 40.4 26.1062 40.8324C25.4884 41.2647 24.9873 41.8295 24.6438 42.4804L24.2246 43.2748L18.1119 45.2056L18.5209 44.4305C19.2608 43.0283 19.7244 41.5099 19.889 39.9499L20.1495 37.4827L18.1119 37L14.2346 45.331C14.0231 45.7853 13.9526 46.2873 14.0313 46.7782C14.1099 47.2691 14.3345 47.7286 14.6787 48.103C14.9546 48.4031 15.2993 48.6396 15.6863 48.7943C16.0734 48.9491 16.4926 49.0181 16.912 48.996L21.1032 48.7753C23.4937 48.6495 25.8245 48.0205 27.9263 46.9342C29.5221 46.1095 30.9586 45.0341 32.1745 43.7538C32.4674 43.4455 32.7426 43.1249 33 42.792L28.8092 39.8961Z" fill="#82B1FF"/>
<path d="M20.2857 38L21.3007 37.3624C21.5158 37.2273 21.6922 37.0442 21.8142 36.8294C21.9362 36.6146 22 36.3747 22 36.1311C22 35.9429 21.9619 35.7564 21.8876 35.5816L21.4749 34.8248C21.0689 34.0805 20.8571 33.2558 20.8571 32.419V31.8745C20.8571 31.6426 20.7593 31.4201 20.5853 31.2561C20.4112 31.0921 20.1751 31 19.929 31C19.7093 31 19.4968 31.0734 19.3291 31.2073C19.1615 31.3411 19.0497 31.5266 19.0136 31.7308L18 37.4615L20.2857 38Z" fill="#F0B78F"/>
<path d="M31.25 46.0088L32.8259 46.2232H34.2868C34.5797 46.2232 34.8673 46.3151 35.1195 46.4891C35.3717 46.6632 35.5792 46.9132 35.7205 47.2129L35.8992 47.5922C35.9795 47.7625 36.0131 47.9575 35.9954 48.1508C35.9778 48.3441 35.9098 48.5264 35.8007 48.6732C35.7243 48.7758 35.63 48.8581 35.5241 48.9145C35.4182 48.9708 35.3031 49 35.1867 49H32.0245C31.4312 49 30.8569 48.7565 30.4017 48.3121C30.2881 48.2012 30.1944 48.065 30.1261 47.9115C30.0579 47.7579 30.0163 47.5901 30.0039 47.4177C29.9915 47.2453 30.0085 47.0718 30.0539 46.9071C30.0994 46.7424 30.1723 46.5899 30.2685 46.4584C30.3879 46.2951 30.54 46.1687 30.7111 46.0903C30.8823 46.0119 31.0674 45.9839 31.25 46.0088Z" fill="#F0B78F"/>
<path d="M32.485 33.2782C32.7273 32.9459 32.8566 32.5555 32.8566 32.1561V30L34.7166 31.3229C35.1822 31.654 35.5431 32.0925 35.7622 32.5933C35.9741 33.0775 36.0461 33.6035 35.9713 34.1206C35.8965 34.6377 35.6774 35.1284 35.3351 35.5457L34.9135 36.0597C34.8702 36.3759 34.8135 36.6893 34.7435 37L29.5142 36.0597L29 34.1792H30.644C31.0083 34.1792 31.3669 34.0969 31.6881 33.9397C32.0092 33.7826 32.2829 33.5553 32.485 33.2782Z" fill="#82B1FF"/>
<path d="M21.4368 26.7037L24.9333 21.7454C25.096 21.5145 25.3094 21.3266 25.5561 21.1971C25.8027 21.0675 26.0755 21 26.3523 21C26.6862 21 27.0132 21.0983 27.2948 21.2833C27.5765 21.4683 27.8011 21.7323 27.9422 22.0444L30.6686 28.0698C30.8791 28.5351 31.1939 28.9422 31.5869 29.2574L33 30.391V32.7689C33 33.2094 32.8736 33.64 32.6366 34.0065C32.4391 34.3121 32.1715 34.5627 31.8575 34.736C31.5435 34.9093 31.1929 35 30.8367 35H29.2294L28.4753 31.8889C27.8196 30.8746 27.4698 29.6828 27.4698 28.4638V27.7407L25.9616 25.1481L23.4478 27.7407L21.9396 29.8148L20.3222 31.0657C20.2759 31.1016 20.2222 31.1259 20.1653 31.1369C20.1084 31.1479 20.0499 31.1452 19.9941 31.1291C19.9384 31.113 19.887 31.0838 19.844 31.0439C19.8009 31.004 19.7673 30.9545 19.7459 30.899L19.027 29.0453C18.9969 28.9679 18.9918 28.8825 19.0124 28.8018C19.0331 28.7211 19.0783 28.6493 19.1415 28.5972L21.4368 26.7037Z" fill="#F0B78F"/>
</svg>
