<svg width="28" height="29" viewBox="0 0 28 29" fill="none" xmlns="http://www.w3.org/2000/svg">
<path d="M26.2033 7.50008C25.305 7.90842 24.3367 8.17675 23.3333 8.30508C24.36 7.68675 25.1533 6.70675 25.5267 5.52841C24.5583 6.11175 23.485 6.52008 22.3533 6.75342C21.4317 5.75008 20.1367 5.16675 18.6667 5.16675C15.925 5.16675 13.685 7.40675 13.685 10.1717C13.685 10.5684 13.7317 10.9534 13.8133 11.3151C9.65999 11.1051 5.96166 9.11008 3.49999 6.08841C3.06833 6.82341 2.82333 7.68675 2.82333 8.59675C2.82333 10.3351 3.69833 11.8751 5.05166 12.7501C4.22333 12.7501 3.45333 12.5167 2.77666 12.1667V12.2017C2.77666 14.6284 4.50333 16.6584 6.78999 17.1134C6.05584 17.3143 5.28511 17.3423 4.53833 17.1951C4.8552 18.1896 5.47579 19.0599 6.31285 19.6835C7.14991 20.3071 8.16135 20.6527 9.20499 20.6718C7.4359 22.0723 5.24299 22.8293 2.98666 22.8184C2.58999 22.8184 2.19333 22.7951 1.79666 22.7484C4.01333 24.1718 6.64999 25.0001 9.47333 25.0001C18.6667 25.0001 23.7183 17.3701 23.7183 10.7551C23.7183 10.5334 23.7183 10.3234 23.7067 10.1017C24.6867 9.40175 25.5267 8.51508 26.2033 7.50008Z" fill="white"/>
</svg>
